<mxfile host="app.diagrams.net" modified="2022-03-06T14:05:12.751Z" agent="5.0 (Macintosh; Intel Mac OS X 10_15_7) AppleWebKit/537.36 (KHTML, like Gecko) Chrome/98.0.4758.109 Safari/537.36" etag="qIqnvEl5rx7hX6D7FXOD" version="16.6.4" type="github">
  <diagram id="3228e29e-7158-1315-38df-8450db1d8a1d" name="Page-1">
    <mxGraphModel dx="861" dy="32" grid="0" gridSize="10" guides="1" tooltips="1" connect="1" arrows="1" fold="1" page="1" pageScale="1" pageWidth="1500" pageHeight="300" background="#EFF1F3" math="0" shadow="0">
      <root>
        <mxCell id="0" />
        <mxCell id="1" parent="0" />
        <mxCell id="0Nolc02TWjUxMofPgPxu-9" value="" style="rounded=1;whiteSpace=wrap;html=1;fontSize=24;fillColor=none;strokeWidth=20;strokeColor=#4A919B;" parent="1" vertex="1">
          <mxGeometry x="284" y="1135" width="431" height="379" as="geometry" />
        </mxCell>
        <mxCell id="BwsGhU0z2LOlRKF7XBy6-3" value="寄存器" style="rounded=1;whiteSpace=wrap;html=1;fillColor=#FDD276;strokeColor=none;fontSize=24;" parent="1" vertex="1">
          <mxGeometry x="314" y="1177.3" width="155" height="41" as="geometry" />
        </mxCell>
        <mxCell id="0Nolc02TWjUxMofPgPxu-3" value="寄存器" style="rounded=1;whiteSpace=wrap;html=1;fillColor=#FDD276;strokeColor=none;fontSize=24;" parent="1" vertex="1">
          <mxGeometry x="314" y="1222.3" width="155" height="41" as="geometry" />
        </mxCell>
        <mxCell id="0Nolc02TWjUxMofPgPxu-4" value="·······" style="rounded=1;whiteSpace=wrap;html=1;fillColor=#FDD276;strokeColor=none;fontSize=24;" parent="1" vertex="1">
          <mxGeometry x="314" y="1268.3" width="155" height="41" as="geometry" />
        </mxCell>
        <mxCell id="0Nolc02TWjUxMofPgPxu-5" value="控制单元" style="rounded=1;whiteSpace=wrap;html=1;fillColor=#9AC7BF;strokeColor=none;fontSize=24;" parent="1" vertex="1">
          <mxGeometry x="494" y="1171.5" width="193" height="306" as="geometry" />
        </mxCell>
        <mxCell id="0Nolc02TWjUxMofPgPxu-8" value="算数逻辑单元" style="rounded=1;whiteSpace=wrap;html=1;fillColor=#F19C99;strokeColor=none;fontSize=24;" parent="1" vertex="1">
          <mxGeometry x="312.5" y="1323" width="158" height="153" as="geometry" />
        </mxCell>
        <mxCell id="0Nolc02TWjUxMofPgPxu-10" value="" style="rounded=1;whiteSpace=wrap;html=1;fontSize=24;strokeColor=#4A919B;strokeWidth=2;fillColor=#4A919B;" parent="1" vertex="1">
          <mxGeometry x="335.8" y="1034" width="38.4" height="77" as="geometry" />
        </mxCell>
        <mxCell id="0Nolc02TWjUxMofPgPxu-18" value="" style="rounded=1;whiteSpace=wrap;html=1;fontSize=24;strokeColor=#4A919B;strokeWidth=2;fillColor=#4A919B;" parent="1" vertex="1">
          <mxGeometry x="432.40000000000003" y="1034" width="38.4" height="77" as="geometry" />
        </mxCell>
        <mxCell id="0Nolc02TWjUxMofPgPxu-19" value="" style="rounded=1;whiteSpace=wrap;html=1;fontSize=24;strokeColor=#4A919B;strokeWidth=2;fillColor=#4A919B;" parent="1" vertex="1">
          <mxGeometry x="528.8" y="1034" width="38.4" height="77" as="geometry" />
        </mxCell>
        <mxCell id="0Nolc02TWjUxMofPgPxu-21" value="" style="rounded=1;whiteSpace=wrap;html=1;fontSize=24;strokeColor=#4A919B;strokeWidth=2;fillColor=#4A919B;" parent="1" vertex="1">
          <mxGeometry x="624.8" y="1034" width="38.4" height="77" as="geometry" />
        </mxCell>
        <mxCell id="0Nolc02TWjUxMofPgPxu-23" value="" style="rounded=1;whiteSpace=wrap;html=1;fontSize=24;strokeColor=#4A919B;strokeWidth=2;fillColor=#4A919B;" parent="1" vertex="1">
          <mxGeometry x="335.8" y="1537" width="38.4" height="77" as="geometry" />
        </mxCell>
        <mxCell id="0Nolc02TWjUxMofPgPxu-24" value="" style="rounded=1;whiteSpace=wrap;html=1;fontSize=24;strokeColor=#4A919B;strokeWidth=2;fillColor=#4A919B;" parent="1" vertex="1">
          <mxGeometry x="432.40000000000003" y="1537" width="38.4" height="77" as="geometry" />
        </mxCell>
        <mxCell id="0Nolc02TWjUxMofPgPxu-25" value="" style="rounded=1;whiteSpace=wrap;html=1;fontSize=24;strokeColor=#4A919B;strokeWidth=2;fillColor=#4A919B;" parent="1" vertex="1">
          <mxGeometry x="528.8" y="1537" width="38.4" height="77" as="geometry" />
        </mxCell>
        <mxCell id="0Nolc02TWjUxMofPgPxu-26" value="" style="rounded=1;whiteSpace=wrap;html=1;fontSize=24;strokeColor=#4A919B;strokeWidth=2;fillColor=#4A919B;" parent="1" vertex="1">
          <mxGeometry x="624.8" y="1537" width="38.4" height="77" as="geometry" />
        </mxCell>
        <mxCell id="0Nolc02TWjUxMofPgPxu-27" value="" style="rounded=1;whiteSpace=wrap;html=1;fontSize=24;strokeColor=#4A919B;strokeWidth=2;fillColor=#4A919B;direction=south;" parent="1" vertex="1">
          <mxGeometry x="179" y="1433.3" width="77" height="38.4" as="geometry" />
        </mxCell>
        <mxCell id="0Nolc02TWjUxMofPgPxu-28" value="" style="rounded=1;whiteSpace=wrap;html=1;fontSize=24;strokeColor=#4A919B;strokeWidth=2;fillColor=#4A919B;direction=south;" parent="1" vertex="1">
          <mxGeometry x="179" y="1344.3" width="77" height="38.4" as="geometry" />
        </mxCell>
        <mxCell id="0Nolc02TWjUxMofPgPxu-29" value="" style="rounded=1;whiteSpace=wrap;html=1;fontSize=24;strokeColor=#4A919B;strokeWidth=2;fillColor=#4A919B;direction=south;" parent="1" vertex="1">
          <mxGeometry x="179" y="1260.3" width="77" height="38.4" as="geometry" />
        </mxCell>
        <mxCell id="0Nolc02TWjUxMofPgPxu-30" value="" style="rounded=1;whiteSpace=wrap;html=1;fontSize=24;strokeColor=#4A919B;strokeWidth=2;fillColor=#4A919B;direction=south;" parent="1" vertex="1">
          <mxGeometry x="178.99999999999994" y="1177.3" width="77" height="38.4" as="geometry" />
        </mxCell>
        <mxCell id="0Nolc02TWjUxMofPgPxu-31" value="" style="rounded=1;whiteSpace=wrap;html=1;fontSize=24;strokeColor=#4A919B;strokeWidth=2;fillColor=#4A919B;direction=south;" parent="1" vertex="1">
          <mxGeometry x="740" y="1433.3" width="77" height="38.4" as="geometry" />
        </mxCell>
        <mxCell id="0Nolc02TWjUxMofPgPxu-32" value="" style="rounded=1;whiteSpace=wrap;html=1;fontSize=24;strokeColor=#4A919B;strokeWidth=2;fillColor=#4A919B;direction=south;" parent="1" vertex="1">
          <mxGeometry x="740" y="1344.3" width="77" height="38.4" as="geometry" />
        </mxCell>
        <mxCell id="0Nolc02TWjUxMofPgPxu-33" value="" style="rounded=1;whiteSpace=wrap;html=1;fontSize=24;strokeColor=#4A919B;strokeWidth=2;fillColor=#4A919B;direction=south;" parent="1" vertex="1">
          <mxGeometry x="740" y="1260.3" width="77" height="38.4" as="geometry" />
        </mxCell>
        <mxCell id="0Nolc02TWjUxMofPgPxu-34" value="" style="rounded=1;whiteSpace=wrap;html=1;fontSize=24;strokeColor=#4A919B;strokeWidth=2;fillColor=#4A919B;direction=south;" parent="1" vertex="1">
          <mxGeometry x="740" y="1177.3" width="77" height="38.4" as="geometry" />
        </mxCell>
        <mxCell id="0Nolc02TWjUxMofPgPxu-36" value="&lt;font style=&quot;font-size: 36px&quot; color=&quot;#000000&quot;&gt;CPU&lt;/font&gt;" style="text;html=1;strokeColor=none;fillColor=none;align=center;verticalAlign=middle;whiteSpace=wrap;rounded=0;fontSize=24;fontColor=#595959;" parent="1" vertex="1">
          <mxGeometry x="442" y="958" width="115" height="45" as="geometry" />
        </mxCell>
        <mxCell id="01zXMhBgvo-8C28YNf5V-1" value="&lt;font style=&quot;font-size: 36px&quot; color=&quot;#ffffff&quot;&gt;内存&lt;/font&gt;" style="rounded=1;whiteSpace=wrap;html=1;strokeColor=none;fillColor=#4A919B;" parent="1" vertex="1">
          <mxGeometry x="1420" y="1347.4" width="238" height="94" as="geometry" />
        </mxCell>
        <mxCell id="01zXMhBgvo-8C28YNf5V-2" value="&lt;font style=&quot;font-size: 36px&quot; color=&quot;#ffffff&quot;&gt;其他I/O设备&lt;/font&gt;" style="rounded=1;whiteSpace=wrap;html=1;strokeColor=none;fillColor=#4A919B;" parent="1" vertex="1">
          <mxGeometry x="1423" y="1215.7" width="238" height="94" as="geometry" />
        </mxCell>
        <mxCell id="gUbd1CEi9uyIXPE57Qf8-1" value="" style="shape=flexArrow;endArrow=classic;startArrow=classic;html=1;rounded=0;fontSize=36;fontColor=#FFFFFF;strokeWidth=5;" edge="1" parent="1">
          <mxGeometry width="100" height="100" relative="1" as="geometry">
            <mxPoint x="879" y="1252" as="sourcePoint" />
            <mxPoint x="1339" y="1252" as="targetPoint" />
          </mxGeometry>
        </mxCell>
      </root>
    </mxGraphModel>
  </diagram>
</mxfile>
